:SAMPLES-PER-SECOND 30
:FULLY-SPECIFIED
:DEGREES
161
root  -54.9964 41.0112 27.0607 -176.865 -77.2858 174.473
RightUpLeg  -4.48155 -7.51475 -10.2308
RightLeg  14.5197 0.182761 -0.237533
RightFoot  -8.58124 -0.127957 2.88359
RightToes  0.00048216 0.542163 -0.142577
Spine  8.97716 1.99272 -1.76305
Spine1  9.81625 1.77003 0.830967
HEad  -26.0566 -29.1572 20.1019
LeftShoulder1  11.0483 -15.3276 -51.2101
LeftArm  -6.07966 22.7183 -25.9927
LeftForeArm  44.3734 -6.89031 -5.85229
LeftHand  -0.25398 0.0180481 5.50724
RightShoulder  6.31223 10.3416 39.4787
RightArm  -31.8857 1.24089 30.7551
RightForeArm  -24.7909 0.777917 1.01377
RightHand  -3.21115 7.3617 -28.2203
LeftUpLeg  -5.94757 4.95932 0.757461
LeftLeg  6.0224 9.64314 -4.72885
LeftFoot  -1.30472 0.121765 -1.29784
LeftToes  1.06245e-005 4.65855e-005 -8.18504e-006
162
root  -55.0254 41.0511 27.2554 -178.202 -76.2603 176.216
RightUpLeg  -4.24482 -13.8464 -11.0467
RightLeg  14.1897 -3.04481 -0.41926
RightFoot  -8.004 -0.156794 3.50483
RightToes  0.00048216 0.542163 -0.142577
Spine  9.08928 2.15189 -0.4198
Spine1  9.76585 2.31573 -0.172654
HEad  -27.0961 -28.9301 20.2797
LeftShoulder1  10.907 -15.1115 -51.1425
LeftArm  -6.70452 25.944 -26.045
LeftForeArm  36.21 -7.82932 -5.8513
LeftHand  -0.25398 0.0180481 5.50724
RightShoulder  5.81076 9.48613 38.6661
RightArm  -29.4318 -5.49887 26.1828
RightForeArm  -33.8462 4.87175 3.07471
RightHand  -0.59471 -1.31199 -14.3601
LeftUpLeg  -6.1344 5.08628 0.959854
LeftLeg  5.86631 10.624 -4.71871
LeftFoot  -1.92528 0.196415 -2.24276
LeftToes  1.06245e-005 4.65855e-005 -8.18504e-006
163
root  -55.063 41.0939 27.3925 -178.408 -75.5399 176.737
RightUpLeg  -3.71682 -19.0195 -12.0071
RightLeg  13.9411 -6.25076 -0.383883
RightFoot  -6.90536 -0.188659 3.67552
RightToes  0.00048216 0.542163 -0.142577
Spine  8.84965 1.92425 0.155604
Spine1  9.67263 2.23139 -0.562045
HEad  -26.9321 -28.0629 19.1416
LeftShoulder1  10.6944 -14.9344 -50.6339
LeftArm  -8.43699 28.86 -26.7655
LeftForeArm  30.6517 -8.97241 -5.37378
LeftHand  -0.25398 0.0180481 5.50724
RightShoulder  5.57197 9.07639 38.2402
RightArm  -24.8009 -10.8845 20.9295
RightForeArm  -23.9835 7.90619 4.35238
RightHand  0.0425749 -5.27387 -2.89586
LeftUpLeg  -6.17942 4.99575 0.919359
LeftLeg  5.53349 11.4501 -4.69383
LeftFoot  -2.41741 0.23907 -2.8756
LeftToes  1.06245e-005 4.65855e-005 -8.18504e-006
164
root  -55.0996 41.1206 27.4582 -178 -74.7495 176.426
RightUpLeg  -3.05558 -22.0697 -12.8934
RightLeg  13.9231 -8.54734 -0.363339
RightFoot  -5.57247 -0.202961 3.27581
RightToes  0.00048216 0.542163 -0.142577
Spine  8.44308 1.54948 -0.0733965
Spine1  9.7338 1.77957 -0.39885
HEad  -26.2594 -26.9627 17.8273
LeftShoulder1  10.3903 -14.7013 -49.8308
LeftArm  -9.80892 30.4997 -27.9397
LeftForeArm  30.2663 -9.29 -4.92475
LeftHand  -0.25398 0.0180481 5.50724
RightShoulder  5.34521 8.87222 37.1729
RightArm  -18.8178 -14.8749 16.942
RightForeArm  -12.1469 10.8936 5.26317
RightHand  -0.600747 0.807924 -9.83701
LeftUpLeg  -6.0475 4.7688 0.72419
LeftLeg  5.30083 12.4129 -4.55145
LeftFoot  -2.99916 0.249854 -3.17857
LeftToes  1.06245e-005 4.65855e-005 -8.18504e-006
165
root  -55.1093 41.1153 27.4428 -177.333 -73.7479 175.77
RightUpLeg  -2.4296 -22.8395 -13.3651
RightLeg  13.8087 -9.10537 -0.331969
RightFoot  -4.74136 -0.215754 3.17481
RightToes  0.00048216 0.542163 -0.142577
Spine  8.07933 1.13248 -0.809374
Spine1  9.77532 1.19059 -0.0339383
HEad  -25.2905 -25.3191 16.5795
LeftShoulder1  10.1761 -14.4796 -49.4073
LeftArm  -9.75779 30.6599 -28.3104
LeftForeArm  32.595 -8.54067 -4.87474
LeftHand  -0.25398 0.0180481 5.50724
RightShoulder  4.91442 8.54045 34.8371
RightArm  -13.0053 -17.6889 15.8496
RightForeArm  -9.93032 14.0487 5.77249
RightHand  -1.96031 4.72962 -22.9499
LeftUpLeg  -6.00917 4.66298 0.571378
LeftLeg  5.46599 13.3579 -4.3492
LeftFoot  -3.82021 0.254397 -3.52571
LeftToes  1.06245e-005 4.65855e-005 -8.18504e-006
166
root  -55.0788 41.0905 27.3559 -176.217 -72.604 174.736
RightUpLeg  -1.98036 -21.1221 -13.4063
RightLeg  13.2429 -8.85512 -0.126764
RightFoot  -4.8077 -0.25514 3.90422
RightToes  0.00048216 0.542163 -0.142577
Spine  7.8148 0.660154 -1.7398
Spine1  9.51049 0.587464 0.149628
HEad  -24.222 -23.5035 15.6285
LeftShoulder1  10.1835 -14.4229 -49.598
LeftArm  -8.51232 29.8715 -27.2493
LeftForeArm  34.9946 -7.58156 -5.12256
LeftHand  -0.25398 0.0180481 5.50724
RightShoulder  4.44928 8.11554 32.3536
RightArm  -10.6504 -19.4675 16.665
RightForeArm  -7.07957 15.3296 5.57386
RightHand  -2.7943 6.30028 -27.7798
LeftUpLeg  -6.12044 4.69874 0.457008
LeftLeg  5.72147 14.1759 -4.25387
LeftFoot  -4.54932 0.268422 -4.05911
LeftToes  1.06245e-005 4.65855e-005 -8.18504e-006
167
root  -55.0208 41.0854 27.2324 -174.944 -71.4446 173.551
RightUpLeg  -1.72409 -17.8047 -13.2373
RightLeg  12.2643 -9.08215 0.12968
RightFoot  -5.25498 -0.29537 4.87572
RightToes  0.00048216 0.542163 -0.142577
Spine  7.53242 0.0829895 -2.35098
Spine1  9.25744 0.0728839 -0.260429
HEad  -23.5397 -21.9301 15.2238
LeftShoulder1  10.2389 -14.4327 -49.8396
LeftArm  -7.14549 28.159 -25.3731
LeftForeArm  37.2016 -6.78965 -5.41125
LeftHand  -0.25398 0.0180481 5.50724
RightShoulder  4.23012 7.82509 31.3975
RightArm  -12.4001 -20.1532 17.3801
RightForeArm  -2.52545 14.0128 5.20567
RightHand  -2.4298 5.96487 -24.7705
LeftUpLeg  -6.10196 4.62705 0.287466
LeftLeg  5.50797 15.1078 -4.25491
LeftFoot  -4.56546 0.282494 -4.30717
LeftToes  1.06245e-005 4.65855e-005 -8.18504e-006
168
root  -54.9498 41.1157 27.1053 -174.364 -70.4221 172.976
RightUpLeg  -1.63435 -15.0923 -12.961
RightLeg  11.3109 -9.68982 0.265605
RightFoot  -5.34067 -0.311819 5.2503
RightToes  0.00048216 0.542163 -0.142577
Spine  7.07293 -0.591712 -2.27268
Spine1  9.6428 -0.361556 -1.17565
HEad  -23.6723 -20.7231 15.1803
LeftShoulder1  10.0957 -14.2302 -49.7051
LeftArm  -6.25255 25.074 -23.6572
LeftForeArm  39.1748 -6.04819 -5.65441
LeftHand  -0.25398 0.0180481 5.50724
RightShoulder  4.25019 7.71018 31.9569
RightArm  -15.7134 -19.855 17.7661
RightForeArm  -3.77586 11.7859 4.95054
RightHand  -1.70492 4.47685 -20.2089
LeftUpLeg  -5.95399 4.3802 0.148234
LeftLeg  5.00798 16.2051 -4.11489
LeftFoot  -3.76429 0.272136 -3.78019
LeftToes  1.06245e-005 4.65855e-005 -8.18504e-006
169
root  -54.8685 41.1561 26.9791 -174.781 -69.6528 173.367
RightUpLeg  -1.60899 -14.0732 -12.623
RightLeg  10.6587 -10.0984 0.517717
RightFoot  -4.97384 -0.311421 4.98786
RightToes  0.00048216 0.542163 -0.142577
Spine  6.65508 -1.0825 -1.82391
Spine1  10.1104 -0.771219 -1.44707
HEad  -24.0608 -20.1674 14.446
LeftShoulder1  10.024 -13.9864 -50.0361
LeftArm  -5.90087 21.1365 -22.2055
LeftForeArm  40.0399 -5.75864 -5.85712
LeftHand  -0.25398 0.0180481 5.50724
RightShoulder  4.21995 7.66083 31.8538
RightArm  -18.8303 -19.8576 19.2795
RightForeArm  -9.24654 10.4841 4.71019
RightHand  -1.21431 2.68673 -17.6525
LeftUpLeg  -5.95907 4.25996 0.24497
LeftLeg  4.86161 16.994 -3.75497
LeftFoot  -2.78451 0.226754 -2.80496
LeftToes  1.06245e-005 4.65855e-005 -8.18504e-006
170
root  -54.7791 41.1815 26.8338 -175.579 -69.1187 174.136
RightUpLeg  -1.44162 -13.9705 -12.3382
RightLeg  10.1223 -10.163 1.06149
RightFoot  -4.59712 -0.312424 4.76554
RightToes  0.00048216 0.542163 -0.142577
Spine  6.33704 -1.43673 -1.42281
Spine1  10.4458 -1.11346 -1.49641
HEad  -24.0197 -19.2747 13.265
LeftShoulder1  9.73312 -13.6775 -49.4585
LeftArm  -6.66885 17.2453 -21.95
LeftForeArm  39.7898 -6.72767 -5.82805
LeftHand  -0.25398 0.0180481 5.50724
RightShoulder  4.30281 7.81584 32.0682
RightArm  -20.973 -20.2402 21.1076
RightForeArm  -12.7137 10.4214 4.49274
RightHand  -1.0857 2.03795 -17.1003
LeftUpLeg  -6.0427 4.44642 0.622181
LeftLeg  5.02163 17.1962 -3.47083
LeftFoot  -2.19334 0.192606 -2.23846
LeftToes  1.06245e-005 4.65855e-005 -8.18504e-006
171
root  -54.6869 41.1984 26.6538 -176.101 -68.7385 174.578
RightUpLeg  -1.04116 -13.7077 -12.1561
RightLeg  9.45773 -10.1975 1.68607
RightFoot  -4.47097 -0.327883 4.95039
RightToes  0.00048216 0.542163 -0.142577
Spine  6.21592 -1.48848 -1.57625
Spine1  10.3119 -1.34589 -0.868503
HEad  -23.3483 -18.4468 12.0725
LeftShoulder1  9.51283 -13.5673 -48.6513
LeftArm  -7.84279 13.9153 -22.1971
LeftForeArm  38.1247 -9.25004 -5.58843
LeftHand  -0.25398 0.0180481 5.50724
RightShoulder  4.4159 8.0225 32.3705
RightArm  -22.0416 -21.2272 22.9551
RightForeArm  -11.5373 11.2498 4.28271
RightHand  -1.25904 2.84956 -17.8769
LeftUpLeg  -5.85462 4.7223 1.12384
LeftLeg  4.80791 17.1608 -3.54878
LeftFoot  -1.74228 0.196532 -2.21311
LeftToes  1.06245e-005 4.65855e-005 -8.18504e-006
